<?xml version="1.0" encoding="utf-8"?>
<!-- Generator: Adobe Illustrator 21.0.2, SVG Export Plug-In . SVG Version: 6.00 Build 0)  -->
<svg version="1.1" id="圖層_1" focusable="false" xmlns="http://www.w3.org/2000/svg" xmlns:xlink="http://www.w3.org/1999/xlink"
	 x="0px" y="0px" viewBox="0 0 416 416" style="enable-background:new 0 0 416 416;" xml:space="preserve">
<path d="M208,416c114.9,0,208-93.1,208-208S322.9,0,208,0S0,93.1,0,208S93.1,416,208,416z M185.8,97.4V80.6
	c0-9.2,7.4-16.6,16.6-16.6h11.1c9.2,0,16.6,7.4,16.6,16.6v17c15.5,0.8,30.5,6.1,43,15.4c5.6,4.1,6.2,12.3,1.2,17.1L258,145.6
	c-3.8,3.7-9.5,3.8-14,1c-5.4-3.4-11.4-5.1-17.8-5.1h-38.9c-9,0-16.3,8.2-16.3,18.3c0,8.2,5,15.5,12.1,17.6l62.3,18.7
	c25.7,7.7,43.7,32.4,43.7,60.1c0,34-26.4,61.5-59.1,62.4v16.8c0,9.2-7.4,16.6-16.6,16.6h-11.1c-9.2,0-16.6-7.4-16.6-16.6v-17
	c-15.5-0.8-30.5-6.1-43-15.4c-5.6-4.1-6.2-12.3-1.2-17.1l16.3-15.5c3.8-3.7,9.5-3.8,14-1c5.4,3.4,11.4,5.1,17.8,5.1h38.9
	c9,0,16.3-8.2,16.3-18.3c0-8.2-5-15.5-12.1-17.6l-62.3-18.7c-25.7-7.7-43.7-32.4-43.7-60.1C126.8,125.8,153.1,98.3,185.8,97.4
	L185.8,97.4z"/>
</svg>
